<?xml version="1.0" encoding="UTF-8"?>
<svg id="Layer_1" data-name="Layer 1" xmlns="http://www.w3.org/2000/svg" viewBox="0 0 1440 1440">
  <defs>
    <style>
      .cls-1 {
        fill: #667eea;
        stroke: #000;
        stroke-miterlimit: 10;
      }
    </style>
  </defs>
  <path class="cls-1" d="M144.54,1444.17c-77.33-14.62-135.23-76.1-144.4-154.47L0,163.05C-.67,94.31,78.44,4.27,147.87,4.27h134.43v1101.03c0,5.02,11.13,11.65,16.56,10.1h584.61c7.6.25,16.66-3.5,16.67-12.21l-.16-233.48c.48-7.7,5.97-16.28,14.38-16.73,146.36,1.6,312.69,24.27,367.94-147.58,47.68-148.32-23.36-306.52-189.97-316.81-105.06-6.49-216.67,5.16-322.43-.04-7.36-.85-11.46,3.85-14.84,9.6l-3.73,589.01-12.3,3.79-313.61-2.1c-1.17-.91-5.35-9.23-5.35-10.21V4.27h874.38c66.85,0,138.74,85.5,145.55,148.88v1142.14c-13.25,76.06-68.23,134.4-144.43,148.88H144.54Z"/>
  <path class="cls-1" d="M882.26,724.22v-213.32h205.54c22.56,0,61.42,17.47,74.95,36.15,40.46,55.87,11.93,177.16-68.28,177.16h-212.21,0Z"/>
</svg>